<?xml version="1.0" encoding="utf-8"?>
<!-- Generator: Adobe Illustrator 21.1.0, SVG Export Plug-In . SVG Version: 6.00 Build 0)  -->
<svg version="1.1" id="Layer_1" xmlns="http://www.w3.org/2000/svg" xmlns:xlink="http://www.w3.org/1999/xlink" x="0px" y="0px"
	 viewBox="0 0 1920 1200" style="enable-background:new 0 0 1920 1200;" xml:space="preserve">
<style type="text/css">
	.st0{fill:#0027FF;}
</style>
<title>creativity-text</title>
<g>
	<g>
		<path class="st0" d="M714.1,600.2c-1.1-1.5-2.4-2.3-4-2.3c-6.5,0-15.8,3.3-27.8,10c1.1,2,2.6,3.1,4.4,3.1c2,0,4.6-1.9,8-5.8
			l-2.7,8.5c-9.4,20.5-20.4,30.7-33.1,30.7h-2.7c-5,0-7.5-3.5-7.5-10.4v-2.3l-0.4-0.4l0.4-0.4v-1.2c0.1-14.1,7.1-35.1,20.8-63
			c15.1-27.1,27.3-40.7,36.7-40.7h1.3c3.8,0,5.7,3.5,5.7,10.4c0,5.1-1,11.2-3.1,18.4v0.4h2.7c13-2.9,19.4-10.3,19.4-22.3v-0.4
			c0-8.3-3.4-13-10.2-14.2h-4.4c-18.3,0-36.2,8.5-53.9,25.4c-21.2,24.3-31.8,48-31.8,71.1c0,4.9,0.6,9.7,1.8,14.6
			c4.6,12,12.9,18.1,24.7,18.1c15.5,0,29.2-6,41.1-18.1c8.7-10.6,13.5-20.1,14.6-28.4V600.2z"/>
		<path class="st0" d="M778.5,580.3h0.4l-0.4,3.5v0.4c0,3.5,2.7,5.6,8,6.1h4.4c0.5,0,2.3-3.7,5.3-11.1c0-3.3-3.4-5-10.2-5
			c-4,0-7.2,0.3-9.7,0.8c-15.3,2.7-25.3,6.4-30,11.1l2.7-6.9c0-1.4-0.9-2.6-2.7-3.5h-3.5c-3.3,0-11.3,3.1-23.9,9.2
			c0,2,1.3,3.1,4,3.5h0.9c1.6,0,3.5-1.3,5.7-3.8C719.1,607.2,714,624,714,634.9c0,7.7,2.8,12.2,8.4,13.4c3.7,0,7.1-0.8,10.2-2.3
			l-0.4-2.7v-3.1c0-13.8,2.7-25,8-33.8c13.8-17.9,25.4-26.9,34.9-26.9h0.9L778.5,580.3z"/>
		<path class="st0" d="M831.7,621.8c-2.1,0-4.6,1-7.5,3.1c-8,13.3-16.3,20-24.7,20c-3.8,0-5.8-2-6.2-6.1v-3.1
			c0-4.4,1.9-11.5,5.7-21.1l6.6,0.4h0.4c6.1,0,12.6-1.3,19.4-3.8c21.8-8.4,32.7-19,32.7-31.9c0-3.3-3.5-5-10.6-5
			c-18.3,0-34.9,6.3-49.9,18.8c-15,15-22.5,28.3-22.5,39.9c0,2.6,0.4,5,1.3,7.3c2.9,6.7,8.5,10,16.8,10c8.7,0,17.4-1.8,26.1-5.4
			c13.5-7,20.3-12.7,20.3-17.3v-0.4C839.7,624.4,837,622.6,831.7,621.8z M807.4,599.5c11.7-13.3,21.4-20,29.2-20h0.4
			c2.9,0,4.4,1,4.4,3.1v2.3l-0.9,3.1c-7.4,14.6-18.9,21.9-34.5,21.9h-1.3l-2.7-0.4C802.1,607.8,803.9,604.5,807.4,599.5z"/>
		<path class="st0" d="M925.9,579.5c0-3.6-3.4-5.4-10.2-5.4c-16.3,0-31.5,5-45.5,15c-18,15.3-26.9,29.9-26.9,43.8v1.9
			c0,2.4,0.4,4.5,1.3,6.1c2.9,6.1,8.5,9.2,16.8,9.2c10.3,0,20.5-2.6,30.5-7.7c2.7,3.8,5.2,5.8,7.5,5.8c3.7,0,7.1-0.8,10.2-2.3
			l-0.4-3.8V641C909.1,624,914.7,603.5,925.9,579.5z M891.9,624.9c-7.9,13.3-16.1,20-24.7,20c-4.1,0-6.2-2.4-6.2-7.3v-1.2
			c1.1-12,6-24.4,14.6-37.3c11.9-13.1,21.1-19.6,27.8-19.6h3.1c-0.5,0.8-4,2.6-10.6,5.4c0,2,1.3,3.1,4,3.5h0.9
			c1.5,0,3.6-1.4,6.2-4.2C900.1,598,895.1,611.6,891.9,624.9z"/>
		<path class="st0" d="M987.6,620.3h-2.2c-1.6,0-3.5,0.6-5.7,1.9c-9.8,12.7-17,19.1-21.6,19.2c-2.7-0.7-4-3.5-4-8.5
			c0-9.5,5.9-30.3,17.7-62.6c0.2-0.4,5.7-1.6,16.3-3.5c10-1.1,15-2.2,15-3.5v-0.8c0-2.3-5-3.5-15-3.5h-11.9c0-1.9,5-13.9,15-36.1
			c0-2.8-1.2-4.2-3.5-4.2H985c-3.4,0-11.3,3.1-23.9,9.2c0,2,1.3,3.1,4,3.5h1.8c3.2-1.9,4.9-3.5,4.9-4.6h0.4v0.4
			c-5.4,11.6-9.9,22.3-13.7,32.3h-4.9c-7.1,0-16.6,3.2-28.3,9.6c0,2.8,4,4.2,11.9,4.2l15.5-0.8h0.4c-11.8,31.2-17.7,52.4-17.7,63.8
			l1.3,6.5c2,3.8,5.5,5.8,10.6,5.8c5.6,0,13.4-1.4,23.4-4.2c15.6-7.6,23.4-13.8,23.4-18.8C994.3,623.1,992.1,621.3,987.6,620.3z"/>
		<path class="st0" d="M1029.2,575.7h-3.5c-3.5,0-11.4,3.1-23.9,9.2v1.2c1,1.5,2.4,2.3,4,2.3h1.8c3.2-2,4.9-3.6,4.9-4.6h0.4v0.4
			c-10.6,22.1-15.9,38.6-15.9,49.6v1.9c0.8,8.5,3.6,12.7,8.4,12.7h0.9c3.8,0,6.7-0.9,8.8-2.7v-8.1c0-14,5.6-33.5,16.8-58.8
			C1031.8,577.8,1030.9,576.8,1029.2,575.7z"/>
		<path class="st0" d="M1029.2,563h1.3c3.7,0,6-2.3,7.1-6.9c-0.8-4.6-3.3-6.9-7.5-6.9h-1.8c-3.8,0-6.1,2.3-7.1,6.9
			C1021.2,559.9,1023.9,562.2,1029.2,563z"/>
		<path class="st0" d="M1112,578.8c0-2-1.2-3.1-3.5-3.1h-3.1c-9.7,2.6-17.5,5.9-23.4,10l3.1,2.7h1.8c1.8,0,3.8-1.4,6.2-4.2
			c-19.9,38.2-33.6,57.2-41.1,57.2c-2.7-0.4-4-3-4-7.7c0-9.3,3.5-22.5,10.6-39.6l6.2-15v-0.4c0-2-1.2-3.1-3.5-3.1h-3.5
			c-9.6,2.8-17.3,6.1-23,10l3.1,2.7h1.8c2.2,0,4.1-1.4,5.7-4.2h0.4v0.4c-10.3,21.9-15.5,38-15.5,48.4v2.3c0,3.5,0.7,6.7,2.2,9.6
			c1.7,2.6,5.7,3.8,11.9,3.8h1.3c23.9,0,46-23,66.3-69.1V578.8z"/>
		<path class="st0" d="M1141,575.7h-3.5c-3.5,0-11.4,3.1-23.9,9.2v1.2c1,1.5,2.4,2.3,4,2.3h1.8c3.2-2,4.9-3.6,4.9-4.6h0.4v0.4
			c-10.6,22.1-15.9,38.6-15.9,49.6v1.9c0.8,8.5,3.6,12.7,8.4,12.7h0.9c3.8,0,6.7-0.9,8.8-2.7v-8.1c0-14,5.6-33.5,16.8-58.8
			C1143.7,577.8,1142.8,576.8,1141,575.7z"/>
		<path class="st0" d="M1141,563h1.3c3.7,0,6-2.3,7.1-6.9c-0.8-4.6-3.3-6.9-7.5-6.9h-1.8c-3.8,0-6.1,2.3-7.1,6.9
			C1133.1,559.9,1135.7,562.2,1141,563z"/>
		<path class="st0" d="M1207.5,625.6c0-2.6-2.2-4.4-6.6-5.4h-2.2c-1.6,0-3.5,0.6-5.7,1.9c-9.8,12.7-17,19.1-21.6,19.2
			c-2.7-0.7-4-3.5-4-8.5c0-9.5,5.9-30.3,17.7-62.6c0.2-0.4,5.7-1.6,16.3-3.5c10-1.1,15-2.2,15-3.5v-0.8c0-2.3-5-3.5-15-3.5h-11.9
			c0-1.9,5-13.9,15-36.1c0-2.8-1.2-4.2-3.5-4.2h-2.7c-3.4,0-11.3,3.1-23.9,9.2c0,2,1.3,3.1,4,3.5h1.8c3.2-1.9,4.9-3.5,4.9-4.6h0.4
			v0.4c-5.4,11.6-9.9,22.3-13.7,32.3h-4.9c-7.1,0-16.6,3.2-28.3,9.6c0,2.8,4,4.2,11.9,4.2l15.5-0.8h0.4
			c-11.8,31.2-17.7,52.4-17.7,63.8l1.3,6.5c2,3.8,5.5,5.8,10.6,5.8c5.6,0,13.4-1.4,23.4-4.2C1199.7,636.9,1207.5,630.6,1207.5,625.6
			z"/>
		<path class="st0" d="M1287.3,575.7h-0.9c-7.9,1.2-16.1,4.5-24.7,10v0.4c1.5,1.8,2.8,2.7,4,2.7c1.4,0,3.2-0.9,5.3-2.7
			c-2.7,6.5-5.4,14.9-8.4,25.4c-14.3,20-24.3,30-30,30c-2.9,0-4.4-2.3-4.4-6.9V631c0-10,5.4-27.1,16.3-51.1v-2.3l-2.2-1.9h-3.5
			c-3.5,0-11.4,3.1-23.9,9.2v1.2c1,1.5,2.4,2.3,4,2.3h1.8c3.2-2,4.9-3.6,4.9-4.6h0.4v0.4c-10.6,21.7-15.9,38.5-15.9,50.3
			c0,9.5,4,14.2,11.9,14.2c10.9,0,22.5-4.9,34.9-14.6c-5.6,26.5-10.2,44.3-13.7,53.4c-4.3,8.5-10.6,12.7-19,12.7
			c-4.4,0-6.6-2.7-6.6-8.1l0.4-3.8c-0.9-4.9-3.1-7.3-6.6-7.3h-3.1c-4.1,0-6.8,2.8-8.4,8.5c0,2.2,0.4,4.3,1.3,6.1
			c3.1,6.7,8.7,10,16.8,10c10.3,0,19.7-2.4,28.3-7.3c9.6-4.9,17.4-17.5,23.4-37.6c8.2-37.6,15.5-64.6,21.6-81v-1.9
			C1290.5,576.3,1289.2,575.7,1287.3,575.7z"/>
	</g>
</g>
</svg>
