<?xml version="1.0" encoding="UTF-8" ?>
<!DOCTYPE svg PUBLIC "-//W3C//DTD SVG 1.1//EN" "http://www.w3.org/Graphics/SVG/1.1/DTD/svg11.dtd">
<svg width="1000pt" height="1000pt" viewBox="0 0 1000 1000" version="1.1" xmlns="http://www.w3.org/2000/svg">
<g id="#000000ff">
<path fill="#000000" opacity="1.00" d=" M 437.02 233.90 C 463.74 226.25 491.84 223.92 519.49 226.15 C 505.31 297.73 491.02 369.30 476.81 440.88 C 474.53 453.31 471.50 465.61 469.68 478.12 C 467.70 478.22 465.71 478.20 463.78 478.63 C 457.88 479.16 451.97 478.74 446.07 478.71 C 423.04 478.66 400.00 479.27 376.97 478.67 C 373.87 478.62 370.77 478.69 367.67 478.75 C 367.57 482.75 367.65 486.75 367.93 490.75 C 371.56 490.83 375.18 490.96 378.81 491.15 C 378.96 497.24 378.95 503.34 378.92 509.44 C 382.89 509.54 386.88 509.53 390.86 509.34 C 390.69 503.16 390.55 496.98 390.68 490.81 C 404.46 490.47 418.24 490.73 432.03 490.67 C 444.24 490.85 456.48 490.11 468.68 490.90 C 468.68 497.09 468.70 503.27 468.71 509.45 C 472.61 509.50 476.52 509.51 480.42 509.47 C 480.47 503.30 480.42 497.14 480.38 490.98 C 484.12 490.84 487.87 490.69 491.62 490.43 C 491.57 486.63 491.47 482.83 491.32 479.04 C 484.77 479.18 478.22 479.39 471.68 479.02 C 478.97 473.28 486.77 468.15 494.35 462.84 C 496.63 468.68 494.99 475.02 495.12 481.09 C 494.31 498.36 493.63 515.64 492.86 532.91 C 492.54 538.96 492.30 545.02 492.12 551.08 C 492.05 552.68 491.96 554.29 491.88 555.92 C 491.53 561.95 491.32 568.00 491.12 574.05 C 490.67 583.34 490.32 592.63 489.89 601.93 C 489.56 608.29 489.30 614.65 489.11 621.02 C 488.65 630.30 488.30 639.58 487.88 648.87 C 487.55 654.93 487.32 661.00 487.12 667.07 C 486.89 671.89 486.73 676.71 486.41 681.53 C 466.79 679.98 447.24 676.77 428.53 670.54 C 392.98 659.00 360.26 638.67 334.44 611.62 C 291.55 567.94 267.78 506.11 270.56 444.95 C 272.05 396.11 290.34 348.05 321.20 310.22 C 350.76 273.71 391.72 246.51 437.02 233.90 M 326.14 369.19 C 321.34 370.37 316.74 372.75 313.37 376.42 C 303.50 386.86 303.19 404.58 312.67 415.37 C 317.50 421.42 325.37 424.49 333.01 424.32 C 338.63 423.57 344.27 421.39 348.24 417.20 C 353.85 412.01 356.60 404.43 357.51 396.99 C 357.55 386.70 351.82 376.35 342.72 371.36 C 337.66 368.84 331.68 367.75 326.14 369.19 M 433.33 461.25 C 432.34 462.68 432.09 465.48 429.97 465.57 C 420.02 465.72 410.06 465.56 400.11 465.72 C 396.16 471.25 389.21 472.56 382.96 473.71 C 401.64 473.88 420.32 473.92 439.00 473.77 C 439.29 470.60 439.06 467.26 440.40 464.29 C 447.91 446.49 455.15 428.57 462.64 410.76 C 460.47 409.36 458.17 408.20 455.79 407.22 C 448.13 425.15 440.89 443.27 433.33 461.25 M 298.86 437.94 C 293.54 444.62 292.37 453.34 290.45 461.40 C 289.05 469.84 288.18 478.39 287.87 486.94 C 288.58 494.41 287.98 502.04 289.97 509.37 C 303.65 509.62 317.34 509.49 331.02 509.44 C 329.24 496.79 331.51 484.05 331.63 471.42 C 325.25 469.02 318.88 466.48 313.06 462.89 C 308.41 459.86 303.76 455.04 304.73 448.99 C 304.58 443.16 309.47 438.20 314.99 437.20 C 322.24 436.38 326.50 444.39 333.20 445.13 C 333.68 442.28 331.78 439.59 330.74 437.01 C 328.73 433.27 325.78 429.44 321.40 428.50 C 312.85 426.58 303.72 430.82 298.86 437.94 M 312.32 440.58 C 307.97 443.16 305.37 449.33 307.96 453.98 C 309.56 458.00 313.86 459.61 317.22 461.82 C 339.89 475.82 369.01 476.79 393.64 467.54 C 400.69 464.99 401.59 453.68 395.02 450.07 C 389.16 446.34 382.99 451.67 376.97 452.11 C 357.57 456.70 336.21 452.76 319.96 441.13 C 317.76 439.58 314.72 439.43 312.32 440.58 Z" />
<path fill="#000000" opacity="1.00" d=" M 664.19 369.22 C 676.56 366.58 689.30 375.44 692.68 387.32 C 695.54 396.97 693.75 408.29 686.70 415.75 C 681.18 422.01 672.31 425.16 664.11 423.46 C 656.39 422.13 649.80 416.60 646.30 409.72 C 640.44 398.36 642.92 383.12 652.72 374.73 C 656.00 371.96 659.97 370.03 664.19 369.22 Z" />
<path fill="#000000" opacity="1.00" d=" M 537.48 410.86 C 539.70 409.55 542.05 408.43 544.60 407.90 C 551.88 426.29 559.77 444.44 567.21 462.77 C 567.86 463.65 567.93 465.56 569.31 465.54 C 579.46 465.87 589.64 465.37 599.80 465.76 C 603.81 471.33 610.97 472.09 617.12 473.66 C 598.44 473.89 579.76 473.59 561.08 473.80 C 561.06 471.10 561.33 468.29 560.28 465.74 C 552.66 447.45 545.07 429.16 537.48 410.86 Z" />
<path fill="#000000" opacity="1.00" d=" M 666.84 445.31 C 667.89 438.87 670.84 431.91 677.09 429.02 C 682.32 427.43 688.25 428.11 692.98 430.89 C 699.75 434.68 704.28 441.59 706.41 448.93 C 711.70 468.53 713.23 489.23 710.14 509.34 C 696.54 509.59 682.95 509.43 669.35 509.42 C 670.38 496.92 669.59 484.37 668.39 471.91 C 676.31 468.81 684.23 465.26 690.92 459.92 C 695.99 455.85 697.13 447.89 693.41 442.57 C 690.46 437.77 683.55 435.37 678.62 438.61 C 674.85 441.11 671.15 443.79 666.84 445.31 Z" />
<path fill="#000000" opacity="1.00" d=" M 679.51 441.56 C 683.13 439.11 688.56 440.32 690.92 443.99 C 694.22 448.42 692.97 455.32 688.28 458.27 C 664.73 475.28 632.55 477.23 605.80 467.17 C 599.51 464.31 598.98 454.47 604.50 450.56 C 607.94 447.87 612.60 449.42 616.34 450.59 C 637.28 457.26 661.56 454.74 679.51 441.56 Z" />
<path fill="#000000" opacity="1.00" d=" M 518.96 479.02 C 532.95 478.66 546.95 478.96 560.94 478.86 C 584.66 478.98 608.39 478.63 632.10 479.04 C 632.14 482.93 632.12 486.83 632.04 490.72 C 628.37 490.65 624.70 490.67 621.03 490.78 C 620.79 496.98 620.88 503.18 620.89 509.38 C 617.15 509.46 613.41 509.47 609.68 509.42 C 609.58 503.24 609.61 497.06 609.66 490.88 C 599.11 490.42 588.55 490.79 578.00 490.68 C 562.39 490.78 546.77 490.46 531.16 490.84 C 531.08 496.93 531.49 503.04 531.02 509.12 C 527.21 509.88 523.28 509.41 519.43 509.48 C 519.21 503.66 519.79 497.80 519.21 492.00 C 518.93 491.70 518.35 491.11 518.06 490.81 L 517.72 490.01 C 517.52 486.30 518.55 482.68 518.96 479.02 Z" />
</g>
<g id="#9f0029ff">
<path fill="#9f0029" opacity="1.00" d=" M 521.84 226.46 C 564.98 230.51 606.73 247.45 640.78 274.21 C 667.52 295.48 689.93 322.44 704.82 353.27 C 735.81 415.03 735.92 491.17 705.17 553.04 C 689.30 586.06 664.95 614.80 635.64 636.68 C 602.07 661.63 561.55 677.14 519.87 680.75 C 509.75 681.84 499.56 681.53 489.41 681.50 C 496.62 633.05 503.54 584.56 510.63 536.09 C 512.95 521.04 514.79 505.81 517.40 490.88 L 518.06 490.81 C 518.35 491.11 518.93 491.70 519.21 492.00 C 519.79 497.80 519.21 503.66 519.43 509.48 C 523.28 509.41 527.21 509.88 531.02 509.12 C 531.49 503.04 531.08 496.93 531.16 490.84 C 546.77 490.46 562.39 490.78 578.00 490.68 C 588.55 490.79 599.11 490.42 609.66 490.88 C 609.61 497.06 609.58 503.24 609.68 509.42 C 613.41 509.47 617.15 509.46 620.89 509.38 C 620.88 503.18 620.79 496.98 621.03 490.78 C 624.70 490.67 628.37 490.65 632.04 490.72 C 632.12 486.83 632.14 482.93 632.10 479.04 C 608.39 478.63 584.66 478.98 560.94 478.86 C 546.95 478.96 532.95 478.66 518.96 479.02 C 522.32 454.73 526.23 430.51 529.36 406.18 C 520.27 412.86 511.57 420.03 502.56 426.81 C 509.02 360.03 515.43 293.25 521.84 226.46 M 664.19 369.22 C 659.97 370.03 656.00 371.96 652.72 374.73 C 642.92 383.12 640.44 398.36 646.30 409.72 C 649.80 416.60 656.39 422.13 664.11 423.46 C 672.31 425.16 681.18 422.01 686.70 415.75 C 693.75 408.29 695.54 396.97 692.68 387.32 C 689.30 375.44 676.56 366.58 664.19 369.22 M 537.48 410.86 C 545.07 429.16 552.66 447.45 560.28 465.74 C 561.33 468.29 561.06 471.10 561.08 473.80 C 579.76 473.59 598.44 473.89 617.12 473.66 C 610.97 472.09 603.81 471.33 599.80 465.76 C 589.64 465.37 579.46 465.87 569.31 465.54 C 567.93 465.56 567.86 463.65 567.21 462.77 C 559.77 444.44 551.88 426.29 544.60 407.90 C 542.05 408.43 539.70 409.55 537.48 410.86 M 666.84 445.31 C 671.15 443.79 674.85 441.11 678.62 438.61 C 683.55 435.37 690.46 437.77 693.41 442.57 C 697.13 447.89 695.99 455.85 690.92 459.92 C 684.23 465.26 676.31 468.81 668.39 471.91 C 669.59 484.37 670.38 496.92 669.35 509.42 C 682.95 509.43 696.54 509.59 710.14 509.34 C 713.23 489.23 711.70 468.53 706.41 448.93 C 704.28 441.59 699.75 434.68 692.98 430.89 C 688.25 428.11 682.32 427.43 677.09 429.02 C 670.84 431.91 667.89 438.87 666.84 445.31 M 679.51 441.56 C 661.56 454.74 637.28 457.26 616.34 450.59 C 612.60 449.42 607.94 447.87 604.50 450.56 C 598.98 454.47 599.51 464.31 605.80 467.17 C 632.55 477.23 664.73 475.28 688.28 458.27 C 692.97 455.32 694.22 448.42 690.92 443.99 C 688.56 440.32 683.13 439.11 679.51 441.56 Z" />
<path fill="#9f0029" opacity="1.00" d=" M 326.14 369.19 C 331.68 367.75 337.66 368.84 342.72 371.36 C 351.82 376.35 357.55 386.70 357.51 396.99 C 356.60 404.43 353.85 412.01 348.24 417.20 C 344.27 421.39 338.63 423.57 333.01 424.32 C 325.37 424.49 317.50 421.42 312.67 415.37 C 303.19 404.58 303.50 386.86 313.37 376.42 C 316.74 372.75 321.34 370.37 326.14 369.19 Z" />
<path fill="#9f0029" opacity="1.00" d=" M 433.33 461.25 C 440.89 443.27 448.13 425.15 455.79 407.22 C 458.17 408.20 460.47 409.36 462.64 410.76 C 455.15 428.57 447.91 446.49 440.40 464.29 C 439.06 467.26 439.29 470.60 439.00 473.77 C 420.32 473.92 401.64 473.88 382.96 473.71 C 389.21 472.56 396.16 471.25 400.11 465.72 C 410.06 465.56 420.02 465.72 429.97 465.57 C 432.09 465.48 432.34 462.68 433.33 461.25 Z" />
<path fill="#9f0029" opacity="1.00" d=" M 298.86 437.94 C 303.72 430.82 312.85 426.58 321.40 428.50 C 325.78 429.44 328.73 433.27 330.74 437.01 C 331.78 439.59 333.68 442.28 333.20 445.13 C 326.50 444.39 322.24 436.38 314.99 437.20 C 309.47 438.20 304.58 443.16 304.73 448.99 C 303.76 455.04 308.41 459.86 313.06 462.89 C 318.88 466.48 325.25 469.02 331.63 471.42 C 331.51 484.05 329.24 496.79 331.02 509.44 C 317.34 509.49 303.65 509.62 289.97 509.37 C 287.98 502.04 288.58 494.41 287.87 486.94 C 288.18 478.39 289.05 469.84 290.45 461.40 C 292.37 453.34 293.54 444.62 298.86 437.94 Z" />
<path fill="#9f0029" opacity="1.00" d=" M 312.32 440.58 C 314.72 439.43 317.76 439.58 319.96 441.13 C 336.21 452.76 357.57 456.70 376.97 452.11 C 382.99 451.67 389.16 446.34 395.02 450.07 C 401.59 453.68 400.69 464.99 393.64 467.54 C 369.01 476.79 339.89 475.82 317.22 461.82 C 313.86 459.61 309.56 458.00 307.96 453.98 C 305.37 449.33 307.97 443.16 312.32 440.58 Z" />
<path fill="#9f0029" opacity="1.00" d=" M 367.67 478.75 C 370.77 478.69 373.87 478.62 376.97 478.67 C 400.00 479.27 423.04 478.66 446.07 478.71 C 451.97 478.74 457.88 479.16 463.78 478.63 C 465.97 478.49 468.16 478.87 470.24 479.61 C 470.60 479.46 471.32 479.17 471.68 479.02 C 478.22 479.39 484.77 479.18 491.32 479.04 C 491.47 482.83 491.57 486.63 491.62 490.43 C 487.87 490.69 484.12 490.84 480.38 490.98 C 480.42 497.14 480.47 503.30 480.42 509.47 C 476.52 509.51 472.61 509.50 468.71 509.45 C 468.70 503.27 468.68 497.09 468.68 490.90 C 456.48 490.11 444.24 490.85 432.03 490.67 C 418.24 490.73 404.46 490.47 390.68 490.81 C 390.55 496.98 390.69 503.16 390.86 509.34 C 386.88 509.53 382.89 509.54 378.92 509.44 C 378.95 503.34 378.96 497.24 378.81 491.15 C 375.18 490.96 371.56 490.83 367.93 490.75 C 367.65 486.75 367.57 482.75 367.67 478.75 Z" />
</g>
<g id="#7a03223a">
<path fill="#7a0322" opacity="0.23" d=" M 494.35 462.84 C 494.50 462.40 494.80 461.53 494.96 461.09 C 496.53 463.06 495.93 465.69 495.84 468.00 C 495.40 472.35 495.62 476.74 495.12 481.09 C 494.99 475.02 496.63 468.68 494.35 462.84 Z" />
<path fill="#7a0322" opacity="0.23" d=" M 492.12 551.08 C 492.30 545.02 492.54 538.96 492.86 532.91 C 492.69 538.97 492.64 545.04 492.12 551.08 Z" />
<path fill="#7a0322" opacity="0.23" d=" M 491.12 574.05 C 491.32 568.00 491.53 561.95 491.88 555.92 C 491.71 561.96 491.64 568.02 491.12 574.05 Z" />
<path fill="#7a0322" opacity="0.23" d=" M 489.11 621.02 C 489.30 614.65 489.56 608.29 489.89 601.93 C 489.74 608.29 489.62 614.67 489.11 621.02 Z" />
<path fill="#7a0322" opacity="0.23" d=" M 487.12 667.07 C 487.32 661.00 487.55 654.93 487.88 648.87 C 487.73 654.93 487.63 661.01 487.12 667.07 Z" />
</g>
</svg>
