<?xml version="1.0" encoding="utf-8"?>
<!-- Generator: Adobe Illustrator 20.1.0, SVG Export Plug-In . SVG Version: 6.00 Build 0)  -->
<svg version="1.1" id="Layer_1" xmlns="http://www.w3.org/2000/svg" xmlns:xlink="http://www.w3.org/1999/xlink" x="0px" y="0px"
	 viewBox="0 0 457.8 456.2" style="enable-background:new 0 0 457.8 456.2;" xml:space="preserve">
<style type="text/css">
	.st0{fill:#020743;}
	.st1{fill:#601B25;}
</style>
<g id="_x23_000000ff">
	<path class="st0" d="M166.7,8.6c26.7-7.6,54.8-10,82.5-7.8C235,72.4,220.7,144,206.5,215.5c-2.3,12.4-5.3,24.7-7.1,37.2
		c-2,0.1-4,0.1-5.9,0.5c-5.9,0.5-11.8,0.1-17.7,0.1c-23,0-46.1,0.6-69.1,0c-3.1-0.1-6.2,0-9.3,0.1c-0.1,4,0,8,0.3,12
		c3.6,0.1,7.3,0.2,10.9,0.4c0.1,6.1,0.1,12.2,0.1,18.3c4,0.1,8,0.1,11.9-0.1c-0.2-6.2-0.3-12.4-0.2-18.5c13.8-0.3,27.6-0.1,41.4-0.1
		c12.2,0.2,24.5-0.6,36.6,0.2c0,6.2,0,12.4,0,18.6c3.9,0,7.8,0.1,11.7,0c0-6.2,0-12.3,0-18.5c3.7-0.1,7.5-0.3,11.2-0.6
		c0-3.8-0.1-7.6-0.3-11.4c-6.6,0.1-13.1,0.4-19.6,0c7.3-5.7,15.1-10.9,22.7-16.2c2.3,5.8,0.6,12.2,0.8,18.3
		c-0.8,17.3-1.5,34.6-2.3,51.8c-0.3,6.1-0.6,12.1-0.7,18.2c-0.1,1.6-0.2,3.2-0.2,4.8c-0.4,6-0.6,12.1-0.8,18.1
		c-0.4,9.3-0.8,18.6-1.2,27.9c-0.3,6.4-0.6,12.7-0.8,19.1c-0.5,9.3-0.8,18.6-1.2,27.8c-0.3,6.1-0.6,12.1-0.8,18.2
		c-0.2,4.8-0.4,9.6-0.7,14.5c-19.6-1.6-39.2-4.8-57.9-11c-35.5-11.5-68.3-31.9-94.1-58.9C21.2,342.6-2.6,280.8,0.2,219.6
		C1.7,170.8,20,122.7,50.9,84.9C80.4,48.4,121.4,21.2,166.7,8.6 M55.8,143.8c-4.8,1.2-9.4,3.6-12.8,7.2
		c-9.9,10.4-10.2,28.2-0.7,38.9c4.8,6.1,12.7,9.1,20.3,9c5.6-0.8,11.3-2.9,15.2-7.1c5.6-5.2,8.4-12.8,9.3-20.2
		c0-10.3-5.7-20.6-14.8-25.6C67.3,143.5,61.3,142.4,55.8,143.8 M163,235.9c-1,1.4-1.2,4.2-3.4,4.3c-10,0.1-19.9,0-29.9,0.1
		c-3.9,5.5-10.9,6.8-17.1,8c18.7,0.2,37.4,0.2,56,0.1c0.3-3.2,0.1-6.5,1.4-9.5c7.5-17.8,14.8-35.7,22.2-53.5
		c-2.2-1.4-4.5-2.6-6.9-3.5C177.8,199.8,170.5,217.9,163,235.9 M28.5,212.6c-5.3,6.7-6.5,15.4-8.4,23.5c-1.4,8.4-2.3,17-2.6,25.5
		c0.7,7.5,0.1,15.1,2.1,22.4c13.7,0.3,27.4,0.1,41,0.1c-1.8-12.6,0.5-25.4,0.6-38c-6.4-2.4-12.8-4.9-18.6-8.5
		c-4.6-3-9.3-7.9-8.3-13.9c-0.2-5.8,4.7-10.8,10.3-11.8c7.3-0.8,11.5,7.2,18.2,7.9c0.5-2.9-1.4-5.5-2.5-8.1c-2-3.7-5-7.6-9.3-8.5
		C42.5,201.2,33.4,205.5,28.5,212.6 M42,215.2c-4.4,2.6-7,8.8-4.4,13.4c1.6,4,5.9,5.6,9.3,7.8c22.7,14,51.8,15,76.4,5.7
		c7-2.6,7.9-13.9,1.4-17.5c-5.9-3.7-12,1.6-18,2c-19.4,4.6-40.8,0.7-57-11C47.4,214.2,44.4,214.1,42,215.2z"/>
	<path class="st0" d="M393.8,143.9c12.4-2.6,25.1,6.2,28.5,18.1c2.9,9.6,1.1,21-6,28.4c-5.5,6.3-14.4,9.4-22.6,7.7
		c-7.7-1.3-14.3-6.9-17.8-13.7c-5.9-11.4-3.4-26.6,6.4-35C385.7,146.6,389.6,144.7,393.8,143.9z"/>
	<path class="st0" d="M267.1,185.5c2.2-1.3,4.6-2.4,7.1-3c7.3,18.4,15.2,36.5,22.6,54.9c0.6,0.9,0.7,2.8,2.1,2.8
		c10.2,0.3,20.3-0.2,30.5,0.2c4,5.6,11.2,6.3,17.3,7.9c-18.7,0.2-37.4-0.1-56,0.1c0-2.7,0.3-5.5-0.8-8.1
		C282.3,222.1,274.7,203.8,267.1,185.5z"/>
	<path class="st0" d="M396.5,220c1-6.4,4-13.4,10.3-16.3c5.2-1.6,11.2-0.9,15.9,1.9c6.8,3.8,11.3,10.7,13.4,18
		c5.3,19.6,6.8,40.3,3.7,60.4c-13.6,0.3-27.2,0.1-40.8,0.1c1-12.5,0.2-25.1-1-37.5c7.9-3.1,15.8-6.6,22.5-12
		c5.1-4.1,6.2-12,2.5-17.4c-2.9-4.8-9.9-7.2-14.8-4C404.5,215.8,400.8,218.4,396.5,220z"/>
	<path class="st0" d="M409.2,216.2c3.6-2.5,9-1.2,11.4,2.4c3.3,4.4,2,11.3-2.6,14.3c-23.6,17-55.7,19-82.5,8.9
		c-6.3-2.9-6.8-12.7-1.3-16.6c3.4-2.7,8.1-1.1,11.8,0C366.9,231.9,391.2,229.4,409.2,216.2z"/>
	<path class="st0" d="M248.6,253.7c14-0.4,28-0.1,42-0.2c23.7,0.1,47.5-0.2,71.2,0.2c0,3.9,0,7.8-0.1,11.7c-3.7-0.1-7.3,0-11,0.1
		c-0.2,6.2-0.2,12.4-0.1,18.6c-3.7,0.1-7.5,0.1-11.2,0c-0.1-6.2-0.1-12.4,0-18.5c-10.5-0.5-21.1-0.1-31.7-0.2
		c-15.6,0.1-31.2-0.2-46.8,0.2c-0.1,6.1,0.3,12.2-0.1,18.3c-3.8,0.8-7.7,0.3-11.6,0.4c-0.2-5.8,0.4-11.7-0.2-17.5
		c-0.3-0.3-0.9-0.9-1.2-1.2l-0.3-0.8C247.2,261,248.2,257.3,248.6,253.7z"/>
</g>
<g id="_x23_9f0029ff">
	<path class="st1" d="M251.5,1.1c43.1,4,84.9,21,118.9,47.7c26.7,21.3,49.1,48.2,64,79.1c31,61.8,31.1,137.9,0.3,199.8
		c-15.9,33-40.2,61.8-69.5,83.6c-33.6,25-74.1,40.5-115.8,44.1c-10.1,1.1-20.3,0.8-30.5,0.8c7.2-48.5,14.1-96.9,21.2-145.4
		c2.3-15.1,4.2-30.3,6.8-45.2l0.7-0.1c0.3,0.3,0.9,0.9,1.2,1.2c0.6,5.8,0,11.7,0.2,17.5c3.9-0.1,7.8,0.4,11.6-0.4
		c0.5-6.1,0.1-12.2,0.1-18.3c15.6-0.4,31.2-0.1,46.8-0.2c10.5,0.1,21.1-0.3,31.7,0.2c0,6.2-0.1,12.4,0,18.5c3.7,0,7.5,0,11.2,0
		c0-6.2-0.1-12.4,0.1-18.6c3.7-0.1,7.3-0.1,11-0.1c0.1-3.9,0.1-7.8,0.1-11.7c-23.7-0.4-47.4-0.1-71.2-0.2c-14,0.1-28-0.2-42,0.2
		c3.4-24.3,7.3-48.5,10.4-72.8c-9.1,6.7-17.8,13.9-26.8,20.6C238.7,134.7,245.1,67.9,251.5,1.1 M393.8,143.9
		c-4.2,0.8-8.2,2.7-11.5,5.5c-9.8,8.4-12.3,23.6-6.4,35c3.5,6.9,10.1,12.4,17.8,13.7c8.2,1.7,17.1-1.4,22.6-7.7
		c7-7.5,8.8-18.8,6-28.4C419,150.1,406.2,141.2,393.8,143.9 M267.1,185.5c7.6,18.3,15.2,36.6,22.8,54.9c1,2.6,0.8,5.4,0.8,8.1
		c18.7-0.2,37.4,0.1,56-0.1c-6.2-1.6-13.3-2.3-17.3-7.9c-10.2-0.4-20.3,0.1-30.5-0.2c-1.4,0-1.5-1.9-2.1-2.8
		c-7.4-18.3-15.3-36.5-22.6-54.9C271.7,183.1,269.4,184.2,267.1,185.5 M396.5,220c4.3-1.5,8-4.2,11.8-6.7c4.9-3.2,11.8-0.8,14.8,4
		c3.7,5.3,2.6,13.3-2.5,17.4c-6.7,5.3-14.6,8.9-22.5,12c1.2,12.5,2,25,1,37.5c13.6,0,27.2,0.2,40.8-0.1c3.1-20.1,1.6-40.8-3.7-60.4
		c-2.1-7.3-6.7-14.3-13.4-18c-4.7-2.8-10.7-3.5-15.9-1.9C400.5,206.6,397.5,213.5,396.5,220 M409.2,216.2c-18,13.2-42.2,15.7-63.2,9
		c-3.7-1.2-8.4-2.7-11.8,0c-5.5,3.9-5,13.8,1.3,16.6c26.8,10.1,58.9,8.1,82.5-8.9c4.7-2.9,5.9-9.8,2.6-14.3
		C418.2,215,412.8,213.8,409.2,216.2z"/>
	<path class="st1" d="M55.8,143.8c5.5-1.4,11.5-0.4,16.6,2.2c9.1,5,14.8,15.3,14.8,25.6c-0.9,7.4-3.7,15-9.3,20.2
		c-4,4.2-9.6,6.4-15.2,7.1c-7.6,0.2-15.5-2.9-20.3-9c-9.5-10.8-9.2-28.5,0.7-38.9C46.4,147.4,51,145,55.8,143.8z"/>
	<path class="st1" d="M163,235.9c7.6-18,14.8-36.1,22.5-54c2.4,1,4.7,2.1,6.9,3.5c-7.5,17.8-14.7,35.7-22.2,53.5
		c-1.3,3-1.1,6.3-1.4,9.5c-18.7,0.2-37.4,0.1-56-0.1c6.3-1.1,13.2-2.5,17.1-8c10-0.2,19.9,0,29.9-0.1
		C161.7,240.1,162,237.3,163,235.9z"/>
	<path class="st1" d="M28.5,212.6c4.9-7.1,14-11.4,22.5-9.4c4.4,0.9,7.3,4.8,9.3,8.5c1,2.6,2.9,5.3,2.5,8.1
		c-6.7-0.7-11-8.8-18.2-7.9c-5.5,1-10.4,6-10.3,11.8c-1,6.1,3.7,10.9,8.3,13.9c5.8,3.6,12.2,6.1,18.6,8.5c-0.1,12.6-2.4,25.4-0.6,38
		c-13.7,0-27.4,0.2-41-0.1c-2-7.3-1.4-15-2.1-22.4c0.3-8.5,1.2-17.1,2.6-25.5C22,228,23.2,219.3,28.5,212.6z"/>
	<path class="st1" d="M42,215.2c2.4-1.1,5.4-1,7.6,0.6c16.2,11.6,37.6,15.6,57,11c6-0.4,12.2-5.8,18-2c6.6,3.6,5.7,14.9-1.4,17.5
		c-24.6,9.3-53.8,8.3-76.4-5.7c-3.4-2.2-7.7-3.8-9.3-7.8C35,224,37.6,217.8,42,215.2z"/>
	<path class="st1" d="M97.3,253.4c3.1-0.1,6.2-0.1,9.3-0.1c23,0.6,46.1,0,69.1,0c5.9,0,11.8,0.5,17.7-0.1c2.2-0.1,4.4,0.2,6.5,1
		c0.4-0.1,1.1-0.4,1.4-0.6c6.5,0.4,13.1,0.2,19.6,0c0.1,3.8,0.3,7.6,0.3,11.4c-3.8,0.3-7.5,0.4-11.2,0.6c0,6.2,0.1,12.3,0,18.5
		c-3.9,0-7.8,0-11.7,0c0-6.2,0-12.4,0-18.6c-12.2-0.8-24.4,0-36.6-0.2c-13.8,0.1-27.6-0.2-41.4,0.1c-0.1,6.2,0,12.4,0.2,18.5
		c-4,0.2-8,0.2-11.9,0.1c0-6.1,0-12.2-0.1-18.3c-3.6-0.2-7.3-0.3-10.9-0.4C97.3,261.4,97.2,257.4,97.3,253.4z"/>
</g>
</svg>
